<?xml version="1.0" encoding="UTF-8"?>
<svg width="42px" height="42px" viewBox="0 0 42 42" version="1.1" xmlns="http://www.w3.org/2000/svg" xmlns:xlink="http://www.w3.org/1999/xlink">
    <!-- Generator: Sketch 55.1 (78136) - https://sketchapp.com -->
    <title>编组 6</title>
    <desc>Created with Sketch.</desc>
    <g id="8月13日增加内容" stroke="none" stroke-width="1" fill="none" fill-rule="evenodd">
        <g id="画板" transform="translate(-137.000000, -212.000000)">
            <g id="编组-6" transform="translate(137.000000, 212.000000)">
                <circle id="椭圆形备份-7" fill="#0A818C" cx="21" cy="21" r="21"></circle>
                <path d="M26.7284715,29.5198756 L29.4087799,32.2 L13.9780823,32.2 L16.6764673,29.5225732 C13.4135427,27.74149 11.2,24.2792453 11.2,20.3 C11.2,14.5010101 15.9010101,9.8 21.7,9.8 C27.4989899,9.8 32.2,14.5010101 32.2,20.3 C32.2,24.2772373 29.9886907,27.7379957 26.7284715,29.5198756 Z M21.7,28.8 C26.3944204,28.8 30.2,24.9944204 30.2,20.3 C30.2,15.6055796 26.3944204,11.8 21.7,11.8 C17.0055796,11.8 13.2,15.6055796 13.2,20.3 C13.2,24.9944204 17.0055796,28.8 21.7,28.8 Z" id="形状结合备份-5" fill="#DCEBEB" fill-rule="nonzero"></path>
                <circle id="椭圆形备份-9" fill="#DCEBEB" cx="21.7" cy="20.3" r="4"></circle>
                <path d="M7.39663684,36.9074961 C6.5336738,36.1630708 5.73193597,35.3496152 5,34.4757059 L34.5824258,4.89328001 C35.4563351,5.62521598 36.2697908,6.42695381 37.0142161,7.28991685 L7.39663684,36.9074961 Z" id="形状结合备份-3" fill="#0A818C"></path>
                <path d="M36.5426694,6.7614636 L6.86818359,36.4359494 C6.37803573,35.9835979 5.90948161,35.5081957 5.46424221,35.0114637 L35.1181836,5.35752222 C35.6149156,5.80276162 36.0903179,6.27131574 36.5426694,6.7614636 Z" id="形状结合备份-6" fill="#DCEBEB" fill-rule="nonzero"></path>
            </g>
        </g>
    </g>
</svg>