<?xml version="1.0" encoding="UTF-8"?>
<svg width="42px" height="42px" viewBox="0 0 42 42" version="1.1" xmlns="http://www.w3.org/2000/svg" xmlns:xlink="http://www.w3.org/1999/xlink">
    <!-- Generator: Sketch 55.1 (78136) - https://sketchapp.com -->
    <title>编组 24</title>
    <desc>Created with Sketch.</desc>
    <g id="8月13日增加内容" stroke="none" stroke-width="1" fill="none" fill-rule="evenodd">
        <g id="编组-24">
            <circle id="椭圆形备份-3" fill="#0A818C" cx="21" cy="21" r="21"></circle>
            <path d="M26.7284715,29.5198756 L29.4087799,32.2 L13.9780823,32.2 L16.6764673,29.5225732 C13.4135427,27.74149 11.2,24.2792453 11.2,20.3 C11.2,14.5010101 15.9010101,9.8 21.7,9.8 C27.4989899,9.8 32.2,14.5010101 32.2,20.3 C32.2,24.2772373 29.9886907,27.7379957 26.7284715,29.5198756 Z M21.7,28.8 C26.3944204,28.8 30.2,24.9944204 30.2,20.3 C30.2,15.6055796 26.3944204,11.8 21.7,11.8 C17.0055796,11.8 13.2,15.6055796 13.2,20.3 C13.2,24.9944204 17.0055796,28.8 21.7,28.8 Z" id="形状结合备份-4" fill-opacity="0.6" fill="#FFFFFF" fill-rule="nonzero"></path>
            <circle id="椭圆形备份-5" fill-opacity="0.6" fill="#FFFFFF" cx="21.7" cy="20.3" r="4"></circle>
        </g>
    </g>
</svg>