<?xml version="1.0" encoding="UTF-8"?>
<svg width="42px" height="42px" viewBox="0 0 42 42" version="1.1" xmlns="http://www.w3.org/2000/svg" xmlns:xlink="http://www.w3.org/1999/xlink">
    <!-- Generator: Sketch 56.3 (81716) - https://sketch.com -->
    <title>编组 16备份 14</title>
    <desc>Created with Sketch.</desc>
    <g id="PC-端设计稿" stroke="none" stroke-width="1" fill="none" fill-rule="evenodd">
        <g id="图标备份" transform="translate(-783.000000, -349.000000)" fill-rule="nonzero">
            <g id="chrome" transform="translate(783.000000, 349.000000)">
                <rect id="矩形" fill="#000000" opacity="0" x="0" y="0" width="42" height="42"></rect>
                <path d="M10.5931875,18.314625 L4.58325,7.9051875 C8.4315,3.087 14.3548125,0 21,0 C28.6873125,0 35.408625,4.13175 39.0691875,10.29525 L21.9331875,10.29525 C21.6260625,10.2676875 21.315,10.2545625 21,10.2545625 C16.0006875,10.2545625 11.788875,13.684125 10.5931875,18.314625 Z M28.518,13.32975 L40.5549375,13.32975 C41.488125,15.7066875 42,18.293625 42,21 C42,32.5185 32.725875,41.86875 21.238875,41.997375 L29.8265625,27.1215 C31.035375,25.38375 31.74675,23.27325 31.74675,21 C31.74675,17.9983125 30.5090625,15.2814375 28.518,13.32975 Z M13.37175,21 C13.37175,16.7934375 16.7934375,13.37175 21,13.37175 C25.2065625,13.37175 28.6295625,16.7934375 28.6295625,21 C28.6295625,25.2065625 25.2065625,28.6295625 21,28.6295625 C16.7934375,28.6295625 13.37175,25.2065625 13.37175,21 Z M23.8783125,31.3543125 L17.8670625,41.7676875 C7.7555625,40.254375 0,31.5328125 0,21 C0,17.2580625 0.979125,13.747125 2.6945625,10.7034375 L11.2678125,25.554375 C12.985875,29.208375 16.7015625,31.74675 21,31.74675 C21.9961875,31.74675 22.9621875,31.6089375 23.8783125,31.3543125 Z" id="形状" fill="#DDDDDD"></path>
            </g>
        </g>
    </g>
</svg>