<?xml version="1.0" encoding="UTF-8"?>
<svg width="20px" height="20px" viewBox="0 0 20 20" version="1.1" xmlns="http://www.w3.org/2000/svg" xmlns:xlink="http://www.w3.org/1999/xlink">
    <!-- Generator: Sketch 55.1 (78136) - https://sketchapp.com -->
    <title>画板备份 4</title>
    <desc>Created with Sketch.</desc>
    <g id="8月13日增加内容" stroke="none" stroke-width="1" fill="none" fill-rule="evenodd">
        <g id="画板" transform="translate(-79.000000, -91.000000)">
            <g id="编组-20备份" transform="translate(81.000000, 93.000000)">
                <circle id="Oval-3" stroke="#4B505A" stroke-width="2" cx="8" cy="4" r="3"></circle>
                <path d="M0,11.9757758 C1.34071181,9.99192526 4.01188151,9 8.01350911,9 C9.74051477,9 11.218035,9.18475369 12.4460697,9.55426108 C13.524358,9.87871075 14.7090014,10.6858823 16,11.9757758 L16,16 L0,16 L0,11.9757758 Z M2,14 L14,14 L14,12.7282758 C13.2004021,12.0635134 12.3273283,11.65516 11.7335341,11.4888186 C10.7318952,11.2082263 9.48477194,11 7.99769034,11 C5.07832228,11 3.01192072,11.6155737 2,12.5843826 L2,14 Z" id="Combined-Shape" fill="#4B505A" fill-rule="nonzero"></path>
                <circle id="椭圆形备份-2" fill="#FF6863" cx="13.5" cy="2.5" r="2.5"></circle>
            </g>
        </g>
    </g>
</svg>