<?xml version="1.0" encoding="UTF-8"?>
<svg width="20px" height="20px" viewBox="0 0 20 20" version="1.1" xmlns="http://www.w3.org/2000/svg" xmlns:xlink="http://www.w3.org/1999/xlink">
    <!-- Generator: Sketch 55 (78076) - https://sketchapp.com -->
    <title>z</title>
    <desc>Created with Sketch.</desc>
    <g id="PC-端设计稿" stroke="none" stroke-width="1" fill="none" fill-rule="evenodd">
        <g id="图标状态" transform="translate(-287.000000, -614.000000)">
            <g id="切片" transform="translate(286.000000, 221.000000)"></g>
            <g id="顶部icon" transform="translate(287.000000, 614.000000)">
                <g id="学生列表" transform="translate(2.000000, 2.000000)">
                    <g id="Group-6">
                        <g>
                            <circle id="Oval-3" stroke="#4B505A" stroke-width="2" cx="8" cy="4" r="3"></circle>
                            <path d="M0,11.9757758 C1.34071181,9.99192526 4.01188151,9 8.01350911,9 C9.74051477,9 11.218035,9.18475369 12.4460697,9.55426108 C13.524358,9.87871075 14.7090014,10.6858823 16,11.9757758 L16,16 L0,16 L0,11.9757758 Z M2,14 L14,14 L14,12.7282758 C13.2004021,12.0635134 12.3273283,11.65516 11.7335341,11.4888186 C10.7318952,11.2082263 9.48477194,11 7.99769034,11 C5.07832228,11 3.01192072,11.6155737 2,12.5843826 L2,14 Z" id="Combined-Shape" fill="#4B505A" fill-rule="nonzero"></path>
                        </g>
                    </g>
                </g>
            </g>
        </g>
    </g>
</svg>