<?xml version="1.0" encoding="UTF-8"?>
<svg width="42px" height="42px" viewBox="0 0 42 42" version="1.1" xmlns="http://www.w3.org/2000/svg" xmlns:xlink="http://www.w3.org/1999/xlink">
    <!-- Generator: Sketch 55.1 (78136) - https://sketchapp.com -->
    <title>编组 25</title>
    <desc>Created with Sketch.</desc>
    <g id="8月13日增加内容" stroke="none" stroke-width="1" fill="none" fill-rule="evenodd">
        <g id="编组-25">
            <circle id="椭圆形备份-4" fill="#0A818C" cx="21" cy="21" r="21"></circle>
            <path d="M20.6613759,33 L19.9394927,33.0066222 C19.9281056,31.765312 17.4015492,30 15,30 L15,28 C16.8096537,28 18.6639688,28.7081219 20,29.7524689 L20,26.6695035 C18.1917905,26.5116239 16.4270323,25.7407408 15.0431458,24.3568542 C11.9189514,21.2326599 11.9189514,16.1673401 15.0431458,13.0431458 L15.7502525,12.336039 L17.7,14.2857864 L20.7,11.2857864 L23.7,14.2857864 L25.6497475,12.336039 L26.3568542,13.0431458 C29.4810486,16.1673401 29.4810486,21.2326599 26.3568542,24.3568542 C25.1265621,25.5871464 23.5952508,26.3329557 22,26.594282 L22,29.6090404 C23.3446811,28.63866 25.191468,28 27,28 L27,30 C24.6465882,30 22.2226921,31.4918119 22,32.6505891 L22,33 L20.6613759,33 Z" id="形状结合备份" fill-opacity="0.6" fill="#FFFFFF" fill-rule="nonzero"></path>
        </g>
    </g>
</svg>