<?xml version="1.0" encoding="UTF-8"?>
<svg width="42px" height="42px" viewBox="0 0 42 42" version="1.1" xmlns="http://www.w3.org/2000/svg" xmlns:xlink="http://www.w3.org/1999/xlink">
    <!-- Generator: Sketch 55.1 (78136) - https://sketchapp.com -->
    <title>编组 5</title>
    <desc>Created with Sketch.</desc>
    <g id="8月13日增加内容" stroke="none" stroke-width="1" fill="none" fill-rule="evenodd">
        <g id="画板" transform="translate(-81.000000, -212.000000)">
            <g id="编组-5" transform="translate(81.000000, 212.000000)">
                <circle id="椭圆形备份-6" fill="#0A818C" cx="21" cy="21" r="21"></circle>
                <rect id="矩形备份-10" fill="#6CB3BA" x="16.8" y="9.8" width="8.4" height="16.8" rx="4.2"></rect>
                <path d="M27,23.2 C27,26.5137085 24.3137085,29.2 21,29.2 C17.6862915,29.2 15,26.5137085 15,23.2 L13,23.2 C13,27.618278 16.581722,31.2 21,31.2 C25.418278,31.2 29,27.618278 29,23.2 L27,23.2 Z" id="路径备份-2" fill="#6CB3BA" fill-rule="nonzero"></path>
                <path d="M7.28991685,36.9074961 C6.42695381,36.1630708 5.62521598,35.3496152 4.89328001,34.4757059 L34.4757059,4.89328001 C35.3496152,5.62521598 36.1630708,6.42695381 36.9074961,7.28991685 L7.28991685,36.9074961 Z" id="形状结合" fill="#0A818C"></path>
                <path d="M36.4359494,6.7614636 L6.7614636,36.4359494 C6.27131574,35.9835979 5.80276162,35.5081957 5.35752222,35.0114637 L35.0114637,5.35752222 C35.5081957,5.80276162 35.9835979,6.27131574 36.4359494,6.7614636 Z" id="形状结合" fill="#6CB3BA" fill-rule="nonzero"></path>
            </g>
        </g>
    </g>
</svg>