<?xml version="1.0" encoding="UTF-8"?>
<svg width="16px" height="16px" viewBox="0 0 16 16" version="1.1" xmlns="http://www.w3.org/2000/svg" xmlns:xlink="http://www.w3.org/1999/xlink">
    <!-- Generator: Sketch 55 (78076) - https://sketchapp.com -->
    <title>切片</title>
    <desc>Created with Sketch.</desc>
    <g id="PC-端设计稿" stroke="none" stroke-width="1" fill="none" fill-rule="evenodd">
        <g id="图标状态" transform="translate(-1662.000000, -726.000000)">
            <g id="切片" transform="translate(286.000000, 221.000000)"></g>
            <g id="编组-3" transform="translate(1663.000000, 726.000000)">
                <polygon id="矩形" fill="#FF6863" points="0 0 10 0 14 4 14 16 0 16"></polygon>
                <path d="M10.7870402,11.6973557 C10.0948588,11.6539096 9.44593883,11.3932329 8.92680281,10.9587717 C7.88853079,11.1760023 6.93678144,11.5235712 5.94177074,11.9145863 C5.16306672,13.3048621 4.42762403,14 3.82196535,14 C3.69218135,14 3.56239734,13.9565539 3.43261334,13.9131078 C3.17304533,13.7827694 3,13.5220927 3,13.2179699 C3,13.0007393 3.04326133,12.3490475 5.42263473,11.3497868 C5.94177074,10.350526 6.41764542,9.3078192 6.76373609,8.22166625 C6.46090675,7.61342059 5.81198674,6.13625257 6.24460008,5.39766856 C6.37438408,5.13699185 6.67721342,4.96320738 7.0233041,5.0066535 C7.2828721,5.0066535 7.49917878,5.13699185 7.67222411,5.35422244 C8.01831479,5.78868362 7.97505345,6.74449823 7.54244011,8.17822014 C7.93179212,8.91680415 8.45092813,9.61194204 9.09984815,10.1767416 C9.61898416,10.0898493 10.1381202,10.0029571 10.6572562,10.0029571 C11.8253122,10.0464032 11.9983575,10.5677566 11.9983575,10.9153256 C12.0416189,11.6973557 11.2196535,11.6973557 10.7870402,11.6973557 Z M4,13 L4.0952381,12.9411765 C4.47619049,12.7647059 4.76190477,12.4117647 5,12 C4.57142857,12.2352941 4.23809524,12.5882353 4,13 L4,13 Z M7.06189749,6 L7,5.86480713 C6.95673867,5.86480713 6.88885214,6 6.88885214,6.03225807 C6.80232947,6.35483871 6.84559081,6.67741936 7.01863615,7 C7.19168148,6.64516129 7.19168148,6.29032259 7.06189749,6 Z M6.36065674,10.9753723 C6.99480308,10.7189621 7.31707318,10.5897436 7.95121952,10.3846154 L8,10.3333333 C7.65853659,10.025641 7.46560669,9.81335449 7.18032837,9.20690918 L6.36065674,10.9753723 Z M10.5172414,10.8606637 C10.3448276,10.8606637 10.1724138,10.8606637 10,10.9041098 C10.2068966,11.0344481 10.4137931,11.0778943 10.5862069,11.1213404 C10.7241379,11.1647865 10.862069,11.1213404 11,11.0778943 C11,10.991002 10.8965517,10.8606637 10.5172414,10.8606637 Z" id="形状" fill="#FFFFFF" fill-rule="nonzero"></path>
                <polygon id="矩形" fill="#FFBCB3" points="10 0 14 4 10 4"></polygon>
            </g>
        </g>
    </g>
</svg>