<?xml version="1.0" encoding="UTF-8"?>
<svg width="42px" height="42px" viewBox="0 0 42 42" version="1.1" xmlns="http://www.w3.org/2000/svg" xmlns:xlink="http://www.w3.org/1999/xlink">
    <!-- Generator: Sketch 56.3 (81716) - https://sketch.com -->
    <title>编组 16备份 15</title>
    <desc>Created with Sketch.</desc>
    <g id="PC-端设计稿" stroke="none" stroke-width="1" fill="none" fill-rule="evenodd">
        <g id="图标备份" transform="translate(-567.000000, -401.000000)" fill-rule="nonzero">
            <g id="qq备份-2" transform="translate(567.000000, 401.000000)">
                <rect id="矩形" fill="#000000" opacity="0" x="0" y="0" width="42" height="42"></rect>
                <path d="M36.5767445,33.2253363 C35.6933252,33.3321039 33.1384147,29.182961 33.1384147,29.182961 C33.1384147,31.5854231 31.9016583,34.7203889 29.2255708,36.9844287 C30.5164391,37.3823736 33.4290555,38.4534984 32.7361776,39.6226532 C32.1754371,40.5686921 23.1163654,40.2266986 20.501058,39.9320723 C17.8857506,40.2266986 8.82667889,40.5686921 8.26593834,39.6226532 C7.57267724,38.453805 10.4823811,37.3835233 11.7750122,36.9848886 C9.09854146,34.7208488 7.86155519,31.5855764 7.86155519,29.182961 C7.86155519,29.182961 5.30664465,33.3321039 4.42330199,33.2253363 C4.01171414,33.1755165 3.4710548,30.9532487 5.13971011,25.5834451 C5.92617248,23.0522948 6.82553409,20.9480615 8.21657843,17.4759308 C7.98242556,8.51611542 11.6843403,1.00045988 20.4999849,1 C29.2174464,1.00045988 33.0052043,8.36818905 32.7835447,17.4760075 C34.1722131,20.9421597 35.0761734,23.0596527 35.860413,25.5834451 C37.5288384,30.9532487 36.9883323,33.1754399 36.5767445,33.2253363 L36.5767445,33.2253363 Z" id="路径" fill="#0A818C"></path>
            </g>
        </g>
    </g>
</svg>