<?xml version="1.0" encoding="UTF-8"?>
<svg width="20px" height="20px" viewBox="0 0 20 20" version="1.1" xmlns="http://www.w3.org/2000/svg" xmlns:xlink="http://www.w3.org/1999/xlink">
    <!-- Generator: Sketch 55.1 (78136) - https://sketchapp.com -->
    <title>001</title>
    <desc>Created with Sketch.</desc>
    <g id="PC-端设计稿" stroke="none" stroke-width="1" fill="none" fill-rule="evenodd">
        <g id="图标状态" transform="translate(-437.000000, -56.000000)">
            <g id="分组-8" transform="translate(405.000000, 56.000000)">
                <g id="编组-16" transform="translate(2.000000, 2.000000)">
                    <path d="M40,8 L35,8 L40,8 L40,3 L40,8 Z M40,8 L45,8 L40,8 L40,13 L40,8 Z" id="形状结合" stroke="#737882" stroke-width="2" stroke-linecap="square"></path>
                    <path d="M40,0 L42.9736938,4 L36.9973755,4 L40,0 Z M40.0026245,16 L37,12 L42.9763184,12 L40.0026245,16 Z M47.9881592,8.01315308 L43.9881592,10.9868469 L43.9881592,5.01052856 L47.9881592,8.01315308 Z M31.9881592,8.00262451 L35.9881592,5 L35.9881592,10.9763184 L31.9881592,8.00262451 Z" id="形状结合" fill="#737882"></path>
                </g>
            </g>
        </g>
    </g>
</svg>