<?xml version="1.0" encoding="UTF-8"?>
<svg width="42px" height="42px" viewBox="0 0 42 42" version="1.1" xmlns="http://www.w3.org/2000/svg" xmlns:xlink="http://www.w3.org/1999/xlink">
    <!-- Generator: Sketch 56.3 (81716) - https://sketch.com -->
    <title>编组 16备份 12</title>
    <desc>Created with Sketch.</desc>
    <g id="PC-端设计稿" stroke="none" stroke-width="1" fill="none" fill-rule="evenodd">
        <g id="图标备份" transform="translate(-639.000000, -349.000000)" fill-rule="nonzero">
            <g id="微信" transform="translate(639.000000, 349.000000)">
                <rect id="矩形" fill="#000000" opacity="0" x="0" y="0" width="42" height="42"></rect>
                <path d="M15.2261074,4.89939844 C7.53370898,4.89939844 1.23288867,10.1427129 1.23288867,16.8003691 C1.23288867,20.6434512 3.32944336,23.798209 6.83115234,26.2423711 L5.43157617,30.4527891 L10.3229766,27.9987832 C12.0738105,28.3463496 13.4776934,28.7019551 15.2242207,28.7019551 C15.6631699,28.7019551 16.099043,28.6803398 16.5305684,28.6457637 C16.2576914,27.7092129 16.099043,26.7300879 16.099043,25.7138848 C16.099043,19.6038281 21.349125,14.6426602 27.9962812,14.6426602 C28.4494219,14.6426602 28.8982559,14.6760059 29.3440137,14.7253887 C28.1333555,9.08820117 22.1066426,4.89939844 15.2261074,4.89939844 Z M10.6804277,14.3469375 C9.63215039,14.3469375 8.57337305,13.6443809 8.57337305,12.5954883 C8.57337305,11.542248 9.63215039,10.8495762 10.6804277,10.8495762 C11.7287051,10.8495762 12.4275703,11.5429043 12.4275703,12.5954883 C12.4269551,13.6443809 11.7287051,14.3469785 10.6804277,14.3469785 L10.6804277,14.3469375 Z M20.4737285,14.3469375 C19.4247949,14.3469375 18.3721699,13.6443809 18.3721699,12.5954883 C18.3721699,11.542248 19.4247949,10.8495762 20.4736875,10.8495762 C21.527543,10.8495762 22.2251777,11.5429043 22.2251777,12.5954883 C22.2251777,13.6443809 21.5269277,14.3469785 20.4736875,14.3469785 L20.4737285,14.3469375 Z M40.7683418,25.546582 C40.7683418,19.9557422 35.1701191,15.3958711 28.882834,15.3958711 C22.2251777,15.3958711 16.981248,19.9557422 16.981248,25.546582 C16.981248,31.1498086 22.2251777,35.7004102 28.882834,35.7004102 C30.2762168,35.7004102 31.6807148,35.3497266 33.0809062,34.9984688 L36.9196816,37.0999863 L35.8670977,33.602584 C38.6754785,31.4967598 40.7683418,28.7025703 40.7683418,25.546582 L40.7683418,25.546582 Z M25.0236738,23.798209 C24.3266543,23.798209 23.6234824,23.1061523 23.6234824,22.399248 C23.6234824,21.7010391 24.3266543,20.9984414 25.0236738,20.9984414 C26.0824512,20.9984414 26.7751641,21.7010391 26.7751641,22.399248 C26.7751641,23.1061523 26.0824512,23.798209 25.0236738,23.798209 Z M32.7209941,23.798209 C32.0289375,23.798209 31.3306875,23.1061523 31.3306875,22.399248 C31.3306875,21.7010391 32.0289375,20.9984414 32.7209941,20.9984414 C33.7692715,20.9984414 34.4724434,21.7010391 34.4724434,22.399248 C34.4724434,23.1061523 33.7692715,23.798209 32.7209941,23.798209 Z" id="形状" fill="#DDDDDD"></path>
            </g>
        </g>
    </g>
</svg>