<?xml version="1.0" encoding="UTF-8"?>
<svg width="178px" height="100px" viewBox="0 0 178 100" version="1.1" xmlns="http://www.w3.org/2000/svg" xmlns:xlink="http://www.w3.org/1999/xlink">
    <!-- Generator: Sketch 55 (78076) - https://sketchapp.com -->
    <title>图标状态</title>
    <desc>Created with Sketch.</desc>
    <defs>
        <rect id="path-1" x="0" y="0" width="178" height="100"></rect>
    </defs>
    <g id="PC-端设计稿" stroke="none" stroke-width="1" fill="none" fill-rule="evenodd">
        <g id="图标状态" transform="translate(-834.000000, -246.000000)">
            <g id="切片" transform="translate(286.000000, 221.000000)"></g>
            <g id="位图" transform="translate(834.000000, 246.000000)">
                <mask id="mask-2" fill="white">
                    <use xlink:href="#path-1"></use>
                </mask>
                <use id="蒙版" fill="#34363B" xlink:href="#path-1"></use>
            </g>
            <path d="M952.278419,280.031791 L952.278419,280.832851 L950.52846,297.1658 C952.354706,297.748204 953.836009,299.247642 953.800432,302.485173 C953.800432,309.69471 949.715027,311.457041 948.27312,312.898949 C947.827481,313.344588 947.09873,313.729013 946.290244,314.004929 C944.546002,321.450346 940.924242,326.858326 935.780885,329.935237 L936.033091,333.039309 C945.787179,334.578446 952.618932,337.856317 953.079478,341.713389 L953.079478,346 L893.80106,346 L893.80106,341.713389 C894.269228,337.792476 901.321259,334.470095 911.334176,332.964317 L911.558665,330.201373 C906.16998,327.174649 902.383772,321.666715 900.588727,313.998234 C899.777605,313.722811 899.049464,313.340995 898.607418,312.898949 C897.16551,311.457041 893,309.69471 893,302.485173 C893,299.21042 894.55196,297.713955 896.435793,297.146074 L894.602119,280.031791 L894.602119,279.230732 C894.602119,273.863632 897.005299,269.057273 900.770279,265.853034 C898.927842,263.049325 897.806358,259.604769 897.806358,256 L925.843448,256 L927.445568,256 L928.246627,256 C941.544218,256 952.278419,266.7342 952.278419,280.031791 Z" id="默认剪影" fill="#212224" fill-rule="nonzero"></path>
        </g>
    </g>
</svg>