<?xml version="1.0" encoding="UTF-8"?>
<svg width="42px" height="42px" viewBox="0 0 42 42" version="1.1" xmlns="http://www.w3.org/2000/svg" xmlns:xlink="http://www.w3.org/1999/xlink">
    <!-- Generator: Sketch 57.1 (83088) - https://sketch.com -->
    <title>编组 3备份</title>
    <desc>Created with Sketch.</desc>
    <g id="8月13日增加内容" stroke="none" stroke-width="1" fill="none" fill-rule="evenodd">
        <g id="画板" transform="translate(-137.000000, -272.000000)">
            <g id="编组-3备份" transform="translate(137.000000, 272.000000)">
                <circle id="椭圆形备份-3" fill="#0A818C" cx="21" cy="21" r="21"></circle>
                <path d="M21.7,9.8 C27.4989899,9.8 32.2,14.5010101 32.2,20.3 C32.2,24.2775858 29.9883031,27.7386022 26.7276144,29.520344 L29.4087799,32.2 L13.9780823,32.2 L16.6764171,29.5225458 C13.41352,27.7414545 11.2,24.2792249 11.2,20.3 C11.2,14.5010101 15.9010101,9.8 21.7,9.8 Z M21.7,11.8 C17.0055796,11.8 13.2,15.6055796 13.2,20.3 C13.2,24.9944204 17.0055796,28.8 21.7,28.8 C26.3944204,28.8 30.2,24.9944204 30.2,20.3 C30.2,15.6055796 26.3944204,11.8 21.7,11.8 Z" id="形状结合备份-4" fill="#DCEBEB" fill-rule="nonzero"></path>
                <circle id="椭圆形备份-5" fill="#DCEBEB" cx="21.7" cy="20.3" r="4"></circle>
            </g>
        </g>
    </g>
</svg>