<?xml version="1.0" encoding="UTF-8"?>
<svg width="22px" height="22px" viewBox="0 0 22 22" version="1.1" xmlns="http://www.w3.org/2000/svg" xmlns:xlink="http://www.w3.org/1999/xlink">
    <!-- Generator: Sketch 56.3 (81716) - https://sketch.com -->
    <title>禁言icon</title>
    <desc>Created with Sketch.</desc>
    <g id="PC-端设计稿" stroke="none" stroke-width="1" fill="none" fill-rule="evenodd">
        <g id="图标备份" transform="translate(-807.000000, -94.000000)">
            <g id="禁言icon" transform="translate(807.000000, 94.000000)">
                <g id="编组-18" transform="translate(0.000000, 1.000000)">
                    <path d="M21.1017747,11.840604 C20.718701,11.22333 20.2267244,10.6807112 19.652687,10.2395898 C19.8792092,9.67497527 20,9.08348745 20,8.47920198 C20,5.03128134 16.0675433,2 11,2 C5.93245672,2 2,5.03128134 2,8.47920198 C2,10.1818137 2.94904469,11.8258103 4.67492316,13.0634288 C5.55830772,13.6878096 6.44315321,14.1292352 7.32945963,14.3877055 C8.30020208,14.6707997 9.12590677,14.8447492 10.0005488,14.9180096 C10.0001833,14.9452961 10,14.9726267 10,15 C10,15.6798467 10.1130698,16.3332845 10.3214298,16.9425339 C9.04604065,16.8827031 7.82934391,16.6553553 6.7078929,16.2886671 L3,18 L3.50942561,14.6887335 C1.35048045,13.1405652 0,10.9314528 0,8.47920198 C0,3.79626804 4.92486775,0 11,0 C17.0751322,0 22,3.79626804 22,8.47920198 C22,9.67341546 21.6797254,10.8099672 21.1017747,11.840604 Z" id="形状结合" fill="#737882" fill-rule="nonzero"></path>
                    <path d="M15,9 C14.4477153,9 14,8.55228475 14,8 C14,7.44771525 14.4477153,7 15,7 C15.5522847,7 16,7.44771525 16,8 C16,8.55228475 15.5522847,9 15,9 Z M11,9 C10.4477153,9 10,8.55228475 10,8 C10,7.44771525 10.4477153,7 11,7 C11.5522847,7 12,7.44771525 12,8 C12,8.55228475 11.5522847,9 11,9 Z M7,9 C6.44771525,9 6,8.55228475 6,8 C6,7.44771525 6.44771525,7 7,7 C7.55228475,7 8,7.44771525 8,8 C8,8.55228475 7.55228475,9 7,9 Z" id="形状结合" fill="#737882"></path>
                    <path d="M18.1489457,13 L13.5259491,17.6229965" id="直线-12备份" stroke="#737882" stroke-width="2" stroke-linecap="square"></path>
                    <circle id="椭圆形备份-2" stroke="#737882" stroke-width="2" cx="16" cy="15" r="4"></circle>
                </g>
            </g>
        </g>
    </g>
</svg>