<?xml version="1.0" encoding="UTF-8"?>
<svg width="40px" height="20px" viewBox="0 0 40 20" version="1.1" xmlns="http://www.w3.org/2000/svg" xmlns:xlink="http://www.w3.org/1999/xlink">
    <!-- Generator: Sketch 56.3 (81716) - https://sketch.com -->
    <title>上课备份 3</title>
    <desc>Created with Sketch.</desc>
    <g id="PC-端设计稿" stroke="none" stroke-width="1" fill="none" fill-rule="evenodd">
        <g id="图标状态" transform="translate(-1243.000000, -1020.000000)">
            <path d="M1243.75472,1020 L1282.24528,1020 C1282.6621,1020 1283,1020.59695 1283,1021.33333 L1283,1038.66667 C1283,1039.40305 1282.6621,1040 1282.24528,1040 L1243.75472,1040 C1243.3379,1040 1243,1039.40305 1243,1038.66667 L1243,1021.33333 C1243,1020.59695 1243.3379,1020 1243.75472,1020 Z" id="形状结合备份-2" fill="#0A818C" transform="translate(1263.000000, 1030.000000) scale(-1, 1) translate(-1263.000000, -1030.000000) "></path>
            <path d="M1243.75472,1020 L1282.24528,1020 C1282.6621,1020 1283,1020.59695 1283,1021.33333 L1283,1038.66667 C1283,1039.40305 1282.6621,1040 1282.24528,1040 L1243.75472,1040 C1243.3379,1040 1243,1039.40305 1243,1038.66667 L1243,1021.33333 C1243,1020.59695 1243.3379,1020 1243.75472,1020 Z" id="形状结合备份-4" fill-opacity="0.2" fill="#000000" transform="translate(1263.000000, 1030.000000) scale(-1, 1) translate(-1263.000000, -1030.000000) "></path>
            <text id="举手" font-family="PingFangSC-Medium, PingFang SC" font-size="12" font-weight="400" fill="#FFFFFF">
                <tspan x="1251" y="1035">举手</tspan>
            </text>
        </g>
    </g>
</svg>