<?xml version="1.0" encoding="UTF-8"?>
<svg width="40px" height="40px" viewBox="0 0 40 40" version="1.1" xmlns="http://www.w3.org/2000/svg" xmlns:xlink="http://www.w3.org/1999/xlink">
    <!-- Generator: Sketch 55 (78076) - https://sketchapp.com -->
    <title>z</title>
    <desc>Created with Sketch.</desc>
    <g id="PC-端设计稿" stroke="none" stroke-width="1" fill="none" fill-rule="evenodd">
        <g id="图标状态" transform="translate(-335.000000, -811.000000)">
            <g id="切片" transform="translate(286.000000, 221.000000)"></g>
            <circle id="椭圆形" fill="#34363B" cx="355" cy="830" r="15"></circle>
            <g id="编组-15" transform="translate(344.000000, 819.000000)">
                <g id="编组-6" transform="translate(4.000000, 2.903806)">
                    <g id="编组-5">
                        <circle id="椭圆形" stroke="#4B505A" stroke-width="2" cx="7.5" cy="7.5" r="6.5"></circle>
                        <circle id="椭圆形" fill="#4B505A" cx="7.5" cy="7.5" r="3.5"></circle>
                        <path d="M7.50306702,15 L11.006134,15 L10.2990515,14.7071311 L12.2991889,16.7071311 L13.0062714,15 L7.50306702,15 Z M7.50306702,15 L1.98434448,15 L2.68868917,16.7098581 L4.70434469,14.7098581 L4,15 L7.50306702,15 Z" id="路径-11" stroke="#4B505A" stroke-width="2"></path>
                    </g>
                </g>
                <path d="M9.92577252,0.803095763 L10.1473476,23.566289" id="直线-5" stroke="#34363B" stroke-width="2" stroke-linecap="square" transform="translate(10.036560, 12.184692) rotate(-315.000000) translate(-10.036560, -12.184692) "></path>
                <path d="M8.78758458,-0.549015965 L9.01002284,21.5340013" id="直线-5" stroke="#34363B" stroke-width="2" stroke-linecap="square" transform="translate(8.898804, 10.492493) rotate(-315.000000) translate(-8.898804, -10.492493) "></path>
                <path d="M10.2596457,-3.5287293 L10.5640848,24.2751893" id="直线-5" stroke="#4B505A" stroke-width="2" stroke-linecap="square" transform="translate(10.411865, 10.373230) rotate(-315.000000) translate(-10.411865, -10.373230) "></path>
            </g>
        </g>
    </g>
</svg>