<?xml version="1.0" encoding="UTF-8"?>
<svg width="42px" height="42px" viewBox="0 0 42 42" version="1.1" xmlns="http://www.w3.org/2000/svg" xmlns:xlink="http://www.w3.org/1999/xlink">
    <!-- Generator: Sketch 57.1 (83088) - https://sketch.com -->
    <title>编组 2备份 4</title>
    <desc>Created with Sketch.</desc>
    <g id="8月13日增加内容" stroke="none" stroke-width="1" fill="none" fill-rule="evenodd">
        <g id="画板" transform="translate(-193.000000, -272.000000)">
            <g id="编组-2备份-4" transform="translate(193.000000, 272.000000)">
                <circle id="椭圆形备份-4" fill="#0A818C" cx="21" cy="21" r="21"></circle>
                <path d="M20.7,11.2857864 L23.7,14.2857864 L25.6497475,12.336039 L26.3568542,13.0431458 C29.4810486,16.1673401 29.4810486,21.2326599 26.3568542,24.3568542 C25.1267332,25.5869753 23.5956768,26.3327482 22.0006658,26.5941729 L22.0002099,29.6094811 C23.3440142,28.6388906 25.1911414,28 27,28 L27,30 C24.6417989,30 22.2128264,31.4978899 21.9986678,32.6576594 L22,33 L20.606,32.9997864 L19.9394927,33.0066222 C19.9284506,31.8029274 17.5523642,30.1065074 15.2185936,30.0047994 L15,30 L15,28 C16.810244,28 18.6651786,28.708584 20.0013073,29.7534911 L20.000235,26.669524 C18.1919433,26.5116907 16.4270923,25.7408008 15.0431458,24.3568542 C11.9854236,21.2991321 11.9203657,16.3820069 14.847972,13.2451612 L15.0431458,13.0431458 L15.7502525,12.336039 L17.7,14.2857864 L20.7,11.2857864 Z" id="形状结合备份" fill="#DCEBEB" fill-rule="nonzero"></path>
            </g>
        </g>
    </g>
</svg>