<?xml version="1.0" encoding="UTF-8"?>
<svg width="30px" height="30px" viewBox="0 0 30 30" version="1.1" xmlns="http://www.w3.org/2000/svg" xmlns:xlink="http://www.w3.org/1999/xlink">
    <!-- Generator: Sketch 55 (78076) - https://sketchapp.com -->
    <title>图标状态</title>
    <desc>Created with Sketch.</desc>
    <g id="PC-端设计稿" stroke="none" stroke-width="1" fill="none" fill-rule="evenodd">
        <g id="图标状态" transform="translate(-628.000000, -504.000000)">
            <g id="侧栏操作icon" transform="translate(620.000000, 243.000000)">
                <g id="选中" transform="translate(8.000000, 261.000000)" fill="#000000" opacity="0.502418155">
                    <rect id="矩形" x="0" y="0" width="30" height="30" rx="2"></rect>
                </g>
                <g id="清除" transform="translate(13.000000, 267.000000)">
                    <rect id="Rectangle-26" fill="#DCEBEB" x="11" y="12" width="8.97546387" height="6"></rect>
                    <path d="M12,7 L12,13.0177002 L18.9931793,13.0177002 L18.9931793,9.73926926 L15.6368985,7 L12,7 Z" id="Rectangle-26-Copy" stroke="#DCEBEB" stroke-width="2"></path>
                    <g>
                        <path d="M0,0 L20,0 L20,16 L0,16 L0,0 Z M2,2 L2,14 L18,14 L18,2 L2,2 Z" id="形状结合" fill="#DCEBEB"></path>
                        <rect id="Rectangle-26" fill="#DCEBEB" x="11" y="12" width="8.97546387" height="6"></rect>
                        <path d="M12,7 L12,13.0177002 L18.9931793,13.0177002 L18.9931793,9.73926926 L15.6368985,7 L12,7 Z" id="Rectangle-26-Copy" stroke="#DCEBEB" stroke-width="2"></path>
                    </g>
                </g>
            </g>
            <g id="切片" transform="translate(286.000000, 221.000000)">
                <g></g>
            </g>
        </g>
    </g>
</svg>