<?xml version="1.0" encoding="UTF-8"?>
<svg width="30px" height="30px" viewBox="0 0 30 30" version="1.1" xmlns="http://www.w3.org/2000/svg" xmlns:xlink="http://www.w3.org/1999/xlink">
    <!-- Generator: Sketch 55.1 (78136) - https://sketchapp.com -->
    <title>图标状态</title>
    <desc>Created with Sketch.</desc>
    <g id="PC-端设计稿" stroke="none" stroke-width="1" fill="none" fill-rule="evenodd">
        <g id="图标状态" transform="translate(-579.000000, -288.000000)">
            <g id="侧栏操作icon" transform="translate(577.000000, 243.000000)">
                <g id="选中" transform="translate(2.000000, 45.000000)" fill="#000000" opacity="0">
                    <rect id="矩形" x="0" y="0" width="30" height="30" rx="2"></rect>
                </g>
                <path d="M17,60 L17,52.8745117 L17,60 L10,60 L17,60 Z M17,60 L25,60 L17,60 L17,67.0615234 L17,60 Z" id="形状结合" stroke="#737882" stroke-width="2" stroke-linecap="square"></path>
                <path d="M17.0059236,49 L19.9812188,53 L14.0016821,53 L17.0059236,49 Z M17.0085495,71 L14.0043081,67 L19.9838447,67 L17.0085495,71 Z M28,60.0131531 L23.997846,62.9868469 L23.997846,57.0105286 L28,60.0131531 Z M6,60.0026245 L10.002154,57 L10.002154,62.9763184 L6,60.0026245 Z" id="形状结合" fill="#737882"></path>
            </g>
        </g>
    </g>
</svg>