<?xml version="1.0" encoding="UTF-8"?>
<svg width="42px" height="42px" viewBox="0 0 42 42" version="1.1" xmlns="http://www.w3.org/2000/svg" xmlns:xlink="http://www.w3.org/1999/xlink">
    <!-- Generator: Sketch 55.1 (78136) - https://sketchapp.com -->
    <title>编组 7</title>
    <desc>Created with Sketch.</desc>
    <g id="8月13日增加内容" stroke="none" stroke-width="1" fill="none" fill-rule="evenodd">
        <g id="画板" transform="translate(-193.000000, -212.000000)">
            <g id="编组-7" transform="translate(193.000000, 212.000000)">
                <circle id="椭圆形备份-8" fill="#0A818C" cx="21" cy="21" r="21"></circle>
                <path d="M20.6613759,33 L19.9394927,33.0066222 C19.9281056,31.765312 17.4015492,30 15,30 L15,28 C16.8096537,28 18.6639688,28.7081219 20,29.7524689 L20,26.6695035 C18.1917905,26.5116239 16.4270323,25.7407408 15.0431458,24.3568542 C11.9189514,21.2326599 11.9189514,16.1673401 15.0431458,13.0431458 L15.7502525,12.336039 L17.7,14.2857864 L20.7,11.2857864 L23.7,14.2857864 L25.6497475,12.336039 L26.3568542,13.0431458 C29.4810486,16.1673401 29.4810486,21.2326599 26.3568542,24.3568542 C25.1265621,25.5871464 23.5952508,26.3329557 22,26.594282 L22,29.6090404 C23.3446811,28.63866 25.191468,28 27,28 L27,30 C24.6465882,30 22.2226921,31.4918119 22,32.6505891 L22,33 L20.6613759,33 Z" id="形状结合备份-2" fill="#DCEBEB" fill-rule="nonzero"></path>
                <path d="M7.39663684,36.9074961 C6.5336738,36.1630708 5.73193597,35.3496152 5,34.4757059 L34.5824258,4.89328001 C35.4563351,5.62521598 36.2697908,6.42695381 37.0142161,7.28991685 L7.39663684,36.9074961 Z" id="形状结合备份-7" fill="#0A818C"></path>
                <path d="M36.5426694,6.7614636 L6.86818359,36.4359494 C6.37803573,35.9835979 5.90948161,35.5081957 5.46424221,35.0114637 L35.1181836,5.35752222 C35.6149156,5.80276162 36.0903179,6.27131574 36.5426694,6.7614636 Z" id="形状结合备份-8" fill="#DCEBEB" fill-rule="nonzero"></path>
            </g>
        </g>
    </g>
</svg>