<?xml version="1.0" encoding="UTF-8"?>
<svg width="24px" height="24px" viewBox="0 0 24 24" version="1.1" xmlns="http://www.w3.org/2000/svg" xmlns:xlink="http://www.w3.org/1999/xlink">
    <!-- Generator: Sketch 56.3 (81716) - https://sketch.com -->
    <title>形状结合备份 4</title>
    <desc>Created with Sketch.</desc>
    <g id="PC-端设计稿" stroke="none" stroke-width="1" fill="none" fill-rule="evenodd">
        <g id="图标备份" transform="translate(-263.000000, -313.000000)">
            <g id="编组备份" transform="translate(263.000000, 313.000000)">
                <g id="消息">
                    <rect id="矩形" stroke="#979797" fill="#D8D8D8" opacity="0" x="0.5" y="0.5" width="23" height="23"></rect>
                    <g id="编组-3" transform="translate(1.000000, 3.000000)">
                        <path d="M4.49156176,16.1588482 L5.60031104,15.5518934 L6.05478389,15.7572322 C7.54863072,16.4321782 9.2397065,16.7929521 11,16.7929521 C16.5640261,16.7929521 21,13.2052671 21,8.89647605 C21,4.58768503 16.5640261,1 11,1 C5.43597387,1 1,4.58768503 1,8.89647605 C1,11.0955427 2.1538589,13.1669797 4.17677793,14.6618151 L4.65889323,15.018074 L4.49156176,16.1588482 Z" id="形状结合" stroke="#37B2BD" stroke-width="2"></path>
                        <path d="M6.5,10.5 C5.67157288,10.5 5,9.82842712 5,9 C5,8.17157288 5.67157288,7.5 6.5,7.5 C7.32842712,7.5 8,8.17157288 8,9 C8,9.82842712 7.32842712,10.5 6.5,10.5 Z M11,10.5 C10.1715729,10.5 9.5,9.82842712 9.5,9 C9.5,8.17157288 10.1715729,7.5 11,7.5 C11.8284271,7.5 12.5,8.17157288 12.5,9 C12.5,9.82842712 11.8284271,10.5 11,10.5 Z M15.5,10.5 C14.6715729,10.5 14,9.82842712 14,9 C14,8.17157288 14.6715729,7.5 15.5,7.5 C16.3284271,7.5 17,8.17157288 17,9 C17,9.82842712 16.3284271,10.5 15.5,10.5 Z" id="形状结合" fill="#37B2BD"></path>
                    </g>
                </g>
            </g>
        </g>
    </g>
</svg>