<?xml version="1.0" encoding="UTF-8"?>
<svg width="20px" height="20px" viewBox="0 0 20 20" version="1.1" xmlns="http://www.w3.org/2000/svg" xmlns:xlink="http://www.w3.org/1999/xlink">
    <!-- Generator: Sketch 55 (78076) - https://sketchapp.com -->
    <title>图标状态</title>
    <desc>Created with Sketch.</desc>
    <g id="PC-端设计稿" stroke="none" stroke-width="1" fill="none" fill-rule="evenodd">
        <g id="图标状态" transform="translate(-1286.000000, -464.000000)">
            <g id="切片" transform="translate(286.000000, 221.000000)"></g>
            <g id="编组-10" transform="translate(1287.000000, 466.000000)">
                <g transform="translate(1.000000, 0.000000)">
                    <path d="M14,12 L12,12 C12,9.790861 10.209139,8 8,8 C5.790861,8 4,9.790861 4,12 L2,12 C2,8.6862915 4.6862915,6 8,6 C11.3137085,6 14,8.6862915 14,12 Z" id="形状结合" fill="#0A818C" fill-rule="nonzero"></path>
                    <rect id="矩形" stroke="#0A818C" stroke-width="2" x="1" y="12" width="14" height="3"></rect>
                    <circle id="椭圆形" stroke="#0A818C" stroke-width="2" cx="8" cy="4" r="3"></circle>
                </g>
                <path d="M8.31607729,-1.20487346 L8.29464592,19.1097402" id="直线-5" stroke="#FFFFFF" stroke-width="2" stroke-linecap="square" transform="translate(8.305362, 8.952433) rotate(-315.000000) translate(-8.305362, -8.952433) "></path>
                <path d="M10.1172119,0.222896215 L10.1756813,19.6661419" id="直线-5" stroke="#FFFFFF" stroke-width="2" stroke-linecap="square" transform="translate(10.146447, 9.944519) rotate(-315.000000) translate(-10.146447, -9.944519) "></path>
                <path d="M9.75304833,0.408858017 L9.75304833,18.4748737" id="直线-5" stroke="#0A818C" stroke-width="2" stroke-linecap="square" transform="translate(10.253048, 9.131728) rotate(-315.000000) translate(-10.253048, -9.131728) "></path>
            </g>
        </g>
    </g>
</svg>