<?xml version="1.0" encoding="UTF-8"?>
<svg width="24px" height="24px" viewBox="0 0 24 24" version="1.1" xmlns="http://www.w3.org/2000/svg" xmlns:xlink="http://www.w3.org/1999/xlink">
    <!-- Generator: Sketch 56.3 (81716) - https://sketch.com -->
    <title>形状结合备份 9</title>
    <desc>Created with Sketch.</desc>
    <g id="PC-端设计稿" stroke="none" stroke-width="1" fill="none" fill-rule="evenodd">
        <g id="图标备份" transform="translate(-298.000000, -402.000000)">
            <g id="编组-15备份" transform="translate(298.000000, 402.000000)">
                <rect id="矩形" fill="#D8D8D8" opacity="0" x="-9.09494702e-13" y="0" width="24" height="24"></rect>
                <g id="编组-16" transform="translate(2.000000, 2.000000)" stroke="#DCEBEB" stroke-width="2">
                    <path d="M7.79127518,18.9003051 C8.38293387,18.3548186 9.16534197,18.0381245 10,18.0381245 C10.834658,18.0381245 11.6170661,18.3548186 12.2087248,18.9003051 C13.0686529,18.6876759 13.8894596,18.3514455 14.6488311,17.9036974 C14.6513456,16.1072046 16.1072046,14.6513456 17.9036974,14.6488311 C18.3514455,13.8894596 18.6876759,13.0686529 18.9003051,12.2087248 C18.3548186,11.6170661 18.0381245,10.834658 18.0381245,10 C18.0381245,9.16534197 18.3548186,8.38293387 18.9003051,7.79127518 C18.6876759,6.93134705 18.3514455,6.11054042 17.9036974,5.35116891 C16.1072046,5.3486544 14.6513456,3.89279539 14.6488311,2.09630259 C13.8894596,1.64855447 13.0686529,1.31232409 12.2087248,1.09969486 C11.6170661,1.64518144 10.834658,1.96187548 10,1.96187548 C9.16534197,1.96187548 8.38293387,1.64518144 7.79127518,1.09969486 C6.93134705,1.31232409 6.11054042,1.64855447 5.35116891,2.09630259 C5.3486544,3.89279539 3.89279539,5.3486544 2.09630259,5.35116891 C1.64855447,6.11054042 1.31232409,6.93134705 1.09969486,7.79127518 C1.64518144,8.38293387 1.96187548,9.16534197 1.96187548,10 C1.96187548,10.834658 1.64518144,11.6170661 1.09969486,12.2087248 C1.31232409,13.0686529 1.64855447,13.8894596 2.09630259,14.6488311 C3.89279539,14.6513456 5.3486544,16.1072046 5.35116891,17.9036974 C6.11054042,18.3514455 6.93134705,18.6876759 7.79127518,18.9003051 Z" id="形状结合"></path>
                    <circle id="椭圆形" cx="10" cy="10" r="2.75"></circle>
                </g>
            </g>
        </g>
    </g>
</svg>