<?xml version="1.0" encoding="UTF-8"?>
<svg width="20px" height="20px" viewBox="0 0 20 20" version="1.1" xmlns="http://www.w3.org/2000/svg" xmlns:xlink="http://www.w3.org/1999/xlink">
    <!-- Generator: Sketch 55 (78076) - https://sketchapp.com -->
    <title>图标状态</title>
    <desc>Created with Sketch.</desc>
    <g id="PC-端设计稿" stroke="none" stroke-width="1" fill="none" fill-rule="evenodd">
        <g id="图标状态" transform="translate(-1662.000000, -411.000000)">
            <g id="切片" transform="translate(286.000000, 221.000000)"></g>
            <g id="编组-8" transform="translate(1663.000000, 411.778175)" stroke-width="2">
                <path d="M3.0018158,16.2199944 L8.8271167,16.2199944 L8.84831312,16.220219 C8.8988011,16.2212894 8.94936505,16.2218254 9,16.2218254 C12.8659932,16.2218254 16,13.0878187 16,9.22182541 C16,5.35583216 12.8659932,2.22182541 9,2.22182541 C5.13400675,2.22182541 2,5.35583216 2,9.22182541 C2,10.4272054 2.30418994,11.58617 2.8759892,12.6154892 L3.0018158,12.8419948 L3.0018158,16.2199944 Z" id="形状结合" stroke="#888888" transform="translate(9.000000, 9.221825) scale(-1, 1) translate(-9.000000, -9.221825) "></path>
                <path d="M8.38477631,-1.53048181 L8.38477631,17.532583" id="直线-5" stroke="#FFFFFF" stroke-linecap="square" transform="translate(8.192388, 8.000000) rotate(-315.000000) translate(-8.192388, -8.000000) "></path>
                <path d="M9.49388669,0.600310747 L9.50312258,18.9985525" id="直线-5" stroke="#FFFFFF" stroke-linecap="square" transform="translate(9.498505, 9.799432) rotate(-315.000000) translate(-9.498505, -9.799432) "></path>
                <path d="M8.75304833,0.744987833 L8.75304833,18.6966991" id="直线-5" stroke="#888888" stroke-linecap="square" transform="translate(9.253048, 9.353553) rotate(-315.000000) translate(-9.253048, -9.353553) "></path>
            </g>
        </g>
    </g>
</svg>