<?xml version="1.0" encoding="UTF-8"?>
<svg width="30px" height="30px" viewBox="0 0 30 30" version="1.1" xmlns="http://www.w3.org/2000/svg" xmlns:xlink="http://www.w3.org/1999/xlink">
    <!-- Generator: Sketch 56.3 (81716) - https://sketch.com -->
    <title>记录备份 30</title>
    <desc>Created with Sketch.</desc>
    <g id="PC-端设计稿" stroke="none" stroke-width="1" fill="none" fill-rule="evenodd">
        <g id="图标备份" transform="translate(-669.000000, -94.000000)">
            <g id="编组-11" transform="translate(669.000000, 94.000000)">
                <circle id="椭圆形" fill="#DDDDDD" cx="15" cy="15" r="15"></circle>
                <g id="编组-22" transform="translate(4.000000, 7.000000)">
                    <g id="麦克风" transform="translate(4.000000, 0.636039)" fill="#979797">
                        <g id="编组-7">
                            <rect id="矩形" x="4" y="0" width="6" height="12" rx="3"></rect>
                            <path d="M14,9 L14,9.64705882 C14,13.1556914 10.8659932,16 7,16 C3.13400675,16 -3.46944695e-18,13.1556914 -3.46944695e-18,9.64705882 L-3.46944695e-18,9 L0.998565674,9 L2,9 L2,9.33333333 C2,11.9106622 4.23857625,14 7,14 C9.76142375,14 12,11.9106622 12,9.33333333 L12,9 L12.0045471,9 L13.0058899,9 L14,9 Z" id="形状结合" fill-rule="nonzero"></path>
                        </g>
                    </g>
                    <path d="M11.4246212,0.767766953 L11.4246212,18.767767" id="直线-5" stroke="#DDDDDD" stroke-width="2" stroke-linecap="square" transform="translate(11.424621, 9.767767) rotate(-315.000000) translate(-11.424621, -9.767767) "></path>
                    <path d="M8.67766953,-0.864655879 L8.67766953,20.4852814" id="直线-5" stroke="#DDDDDD" stroke-width="2" stroke-linecap="square" transform="translate(8.485281, 10.000000) rotate(-315.000000) translate(-8.485281, -10.000000) "></path>
                    <path d="M10.8793032,0.974928485 L10.8793032,17.3534212" id="直线-5" stroke="#979797" stroke-width="2" stroke-linecap="square" transform="translate(10.379303, 8.853421) rotate(-315.000000) translate(-10.379303, -8.853421) "></path>
                </g>
            </g>
        </g>
    </g>
</svg>